# xmcd
#
# Track frame offsets:
#	300
#	15137
#	32892
#	43839
#	62833
#	76300
#	85923
#	97056
#	110018
#	122794
#	139716
#	153847
#	168871
#	183096
#	192469
#	208018
#	220589
#	230768
#	241546
#	253637
#	263883
#	276722
#	288010
#	299911
#	311440
#	324567
#
# Disc length: 4513 seconds
#
# Revision: 0
# Processed by: cddbd v1.5.2PL0 Copyright (c) Steve Scherf et al.
# Submitted via: audiograbber 1.83.01
#
DISCID=7d119d1a
DTITLE=Rùzní - Oblíbené country melodie - CD 2
DYEAR=1900
DGENRE=
TTITLE0=Kenny Rogers - Crazy
TTITLE1=Don Williams - If You Could Read My Mind
TTITLE2=Roger Miller - King Of The Road
TTITLE3=John Denver - Rocky Mountain High
TTITLE4=Glenn Campbell - Rhinestone Cowboy
TTITLE5=George McCormick - Jambalaya
TTITLE6=Don Gibson - Oh! Lonesome Me
TTITLE7=Merle Haggard - The Fighting Side Of Me
TTITLE8=Don Gibson - I Can't Stop Loving You
TTITLE9=Kenny Rogers - You Decorated My Life
TTITLE10=Brenda Lee - End Of The World
TTITLE11=John Rodriquez - Desperado
TTITLE12=The Catlemen - Red River Valley
TTITLE13=The Catlemen - The Yellow Rose Of Texas
TTITLE14=The Catlemen - Cool Water
TTITLE15=The Catlemen - Tumbling Tumbleweeds
TTITLE16=The Catlemen - The Streets Of Laredo
TTITLE17=The Catlemen - Jack O'Diamonds
TTITLE18=The Catlemen - Ridin' Down The Canyon
TTITLE19=The Catlemen - Whoopee Ti Yo Yo
TTITLE20=The Catlemen - She'll Be Comin' 'Round The Mountain
TTITLE21=The Catlemen - Take Me Back To My Boots And Saddle
TTITLE22=The Catlemen - Old Paint
TTITLE23=The Catlemen - In The Pines
TTITLE24=The Catlemen - Bury Me Not On The Lone Prairie
TTITLE25=The Catlemen - The Last Round-Up
EXTD=
EXTT0=
EXTT1=
EXTT2=
EXTT3=
EXTT4=
EXTT5=
EXTT6=
EXTT7=
EXTT8=
EXTT9=
EXTT10=
EXTT11=
EXTT12=
EXTT13=
EXTT14=
EXTT15=
EXTT16=
EXTT17=
EXTT18=
EXTT19=
EXTT20=
EXTT21=
EXTT22=
EXTT23=
EXTT24=
EXTT25=
PLAYORDER=
